# xmcd CD database file
#
# Track frame offsets:
#	151
#	28410
#	66715
#	89117
#	114432
#	127122
#	158426
#	192970
#	230196
#
# Disc length: 3382 seconds
#
# Revision: 0
# Processed by: cddbd v1.5.2PL0 Copyright (c) Steve Scherf et al.
# Submitted via: CDex 1.51
#
DISCID=880d3409
DTITLE=Dee Dee Bridgewater - Live in Paris
DYEAR=1986
DGENRE=Jazz
TTITLE0=All Blues
TTITLE1=Misty
TTITLE2=On a Clear Day
TTITLE3=Dr Feelgood
TTITLE4=There is no Greater Love
TTITLE5=Here's That Rainy Day
TTITLE6=Medley Blues
TTITLE7=How High the Moon
TTITLE8=Cherokee
EXTD=YEAR: 1986
EXTT0=
EXTT1=
EXTT2=
EXTT3=
EXTT4=
EXTT5=
EXTT6=
EXTT7=
EXTT8=
PLAYORDER=
